# xmcd
#
# Track frame offsets: 
#        150
#        14605
#        30920
#        47035
#        66700
#        82582
#        98650
#        112960
#        125502
#        141187
#        156185
#        170940
#        185777
#
# Disc length: 2697 seconds
#
# Revision: 2
# Processed by: cddbd v1.5.2PL0 Copyright (c) Steve Scherf et al.
# Submitted via: ExactAudioCopy v0.95b3
#
DISCID=b00a870d
DTITLE=Hicks, Taylor - 2006-Taylor Hicks
DYEAR=2006
DGENRE=Soul
TTITLE0=The Runaround
TTITLE1=Dream Myself Awake
TTITLE2=Heaven Knows
TTITLE3=Gonna Move
TTITLE4=Wherever I Lay My Hat
TTITLE5=Give Me Tonight
TTITLE6=Just To Feel That Way
TTITLE7=The Maze
TTITLE8=Places I've Been
TTITLE9=Soul Thing
TTITLE10=The Deal
TTITLE11=The Right Place
TTITLE12=Hell Of A Day
EXTD=
EXTT0=
EXTT1=
EXTT2=
EXTT3=
EXTT4=
EXTT5=
EXTT6=
EXTT7=
EXTT8=
EXTT9=
EXTT10=
EXTT11=
EXTT12=
PLAYORDER=
